<?xml version="1.0" encoding="iso-8859-1"?>
<!-- Generator: Adobe Illustrator 19.0.0, SVG Export Plug-In . SVG Version: 6.00 Build 0)  -->
<svg version="1.1" id="Layer_1" xmlns="http://www.w3.org/2000/svg" xmlns:xlink="http://www.w3.org/1999/xlink" x="0px" y="0px"
	 viewBox="0 0 500 500" style="enable-background:new 0 0 500 500;" xml:space="preserve">
<path style="fill:#EDC654;" d="M4,65.8v304c0,7.6,6.4,14,14,14h468c7.6,0,14-6.4,14-14v-302c0-8.8-7.2-16-16-16H18
	C10.4,51.8,4,58.2,4,65.8z"/>
<rect x="28" y="79.8" style="fill:#CDEEF9;" width="448" height="280"/>
<path style="fill:#3C8E51;" d="M200,147l-73.2,73.6L92,187l-62.4,58.4c-0.4,0.4,0,110.8,0,110.8H476v-94.4l-75.6-75.6L323.2,263
	L200,147z"/>
<path style="fill:#54B265;" d="M200,147l-73.2,73.6l138.4,135.6h157.6L200,147z"/>
<path style="fill:#E8BB85;" d="M92,186.6L29.6,245c-0.4,0.4,0,110.8,0,110.8h237.6L92,186.6z"/>
<circle style="fill:#E9B526;" cx="316.4" cy="143.4" r="26.4"/>
<path style="fill:#ACD9EA;" d="M393.2,387.8c-1.2-10.8-6.4-20.8-13.6-28c-0.8,0-1.2-0.8-1.6-1.6c-8.4-7.6-19.6-12.4-32-12.4
	c-1.6,0-2.8,0-4.4,0.4c-0.8,0-1.6-0.4-2-1.2c-7.2-18.4-24.8-30-44.4-30c-9.2,0-18,2.4-25.6,7.6c-0.4,0.4-1.2,0.4-1.6,0.4
	c-0.4,0-1.2-0.8-1.2-1.2c-7.2-18.4-25.2-30.8-44.8-30.8c-10.4,0-20.4,3.6-28.4,9.2l-10,10c-6,8-9.6,18-9.6,28.8c0,2,0,3.6,0.4,5.6
	c0,0.8,0,1.2-0.4,1.6s-1.2,0.8-1.6,0.4c-2-0.4-4-0.4-5.6-0.4c-11.2,0-21.6,4-30,10.4l-4.8,4c-6.8,6.8-12,15.2-14,24.8
	c0,0.8-0.4,2-0.4,3.2c0,0,0,0,0,0.4c-0.4,2-0.4,4-0.4,6c0,26.8,19.6,51.6,45.6,52c1.2,0,182.8,0,184,0c26.8-0.4,47.6-25.6,47.6-52
	C393.6,391.8,393.6,389.8,393.2,387.8z"/>
<path d="M346,451.8H162h-0.4c-30.4-4.4-50.8-26.8-50.8-56c0-30,26-56,55.6-56c0.4,0,1.2,0,1.6,0c0-0.4,0-1.2,0-1.6
	c0-30,24.4-54,54-54c20.8,0,39.6,12,48.8,30.4c7.6-4,16-6,24.8-6c21.2,0,40,12.4,49.2,31.6h0.4c0.4,0,0.8,0,1.6,0
	c29.6,0,53.6,24.8,53.6,55.2c0,28.4-22,51.6-53.2,56C346.4,451.8,346,451.8,346,451.8z M162.4,443.8H346c27.2-4,46-23.6,46-48
	c0-26-20.4-47.2-45.6-47.2c-0.8,0-1.6,0-2.4,0c-0.8,0-1.2,0-1.6,0c-2,0-3.6-0.8-4-2.4c-7.2-17.6-24-29.2-42.8-29.2
	c-8.8,0-17.2,2.4-24.4,6.8c-1.2,0.8-2.4,0.8-3.2,0.4c-1.2-0.4-2-1.2-2.4-2.4c-6.8-17.6-24-29.6-43.2-29.6c-25.6,0-46,20.8-46,46
	c0,1.6,0,3.6,0.4,5.6c0,1.2-0.4,2.4-1.2,3.2c-0.8,0.8-2,1.2-3.2,1.2c-2-0.4-3.6-0.4-5.6-0.4c-25.2,0-47.6,22.4-47.6,48
	C118.4,420.6,136,439.8,162.4,443.8z"/>
<path d="M482,392.2h-84c-2.4,0-4-1.6-4-4s1.6-4,4-4h84c6.4,0,10-3.6,10-10v-306c0-6.8-5.2-12-12-12H18c-6.8,0-10,3.2-10,10v308
	c0,6.4,3.6,10,10,10h96c2.4,0,4,1.6,4,4s-1.6,4-4,4H18c-10.8,0-18-7.2-18-18v-308c0-10.8,7.2-18,18-18h462c11.2,0,20,8.8,20,20v306
	C500,385,492.8,392.2,482,392.2z"/>
<path d="M128,364.2H28c-2.4,0-4-1.6-4-4v-280c0-2.4,1.6-4,4-4h388c2.4,0,4,1.6,4,4s-1.6,4-4,4H32v272h96c2.4,0,4,1.6,4,4
	S130.4,364.2,128,364.2z"/>
<path d="M472,364.2h-88c-2.4,0-4-1.6-4-4s1.6-4,4-4h84v-272h-16c-2.4,0-4-1.6-4-4s1.6-4,4-4h20c2.4,0,4,1.6,4,4v280
	C476,362.2,474.4,364.2,472,364.2z"/>
<path d="M28,252.2c-1.2,0-2-0.4-2.8-1.2c-1.6-1.6-1.6-4,0-5.6l64-64.4c1.6-1.6,4-1.6,5.6,0s1.6,4,0,5.6l-64,64.4
	C30,251.8,29.2,252.2,28,252.2z"/>
<path d="M184,280.2c-1.2,0-2-0.4-2.8-1.2l-92-92c-1.6-1.6-1.6-4,0-5.6s4-1.6,5.6,0l92,92c1.6,1.6,1.6,4,0,5.6
	C186,279.8,185.2,280.2,184,280.2z"/>
<path d="M140,212.2c-1.2,0-2-0.4-2.8-1.2c-1.6-1.6-1.6-4,0-5.6l64-64c1.6-1.6,4-1.6,5.6,0s1.6,4,0,5.6l-64,64
	C142,212.2,141.2,212.2,140,212.2z"/>
<path d="M336,252.2c-1.2,0-2-0.4-2.8-1.2c-1.6-1.6-1.6-4,0-5.6l64.4-64.4c1.6-1.6,4-1.6,5.6,0s1.6,4,0,5.6L338.8,251
	C338,251.8,337.2,252.2,336,252.2z"/>
<path d="M356.4,300.6c-1.2,0-2-0.4-2.8-1.2L201.2,147c-1.6-1.6-1.6-4,0-5.6s4-1.6,5.6,0l152.4,152.4c1.6,1.6,1.6,4,0,5.6
	C358.4,300.2,357.6,300.6,356.4,300.6z"/>
<path d="M470.8,261.8c-1.2,0-2-0.4-2.8-1.2l-70-74c-1.6-1.6-1.6-4,0-5.6s4-1.6,5.6,0l70,74c1.6,1.6,1.6,4,0,5.6
	C472.8,261.4,471.6,261.8,470.8,261.8z"/>
<path d="M316,172.6c-15.6,0-28-12.8-28-28c0-15.6,12.8-28,28-28c6,0,11.6,1.6,16.4,5.2c2,1.2,2.4,3.6,0.8,5.6s-3.6,2.4-5.6,0.8
	c-3.6-2.4-7.6-3.6-11.6-3.6c-11.2,0-20,9.2-20,20c0,11.2,9.2,20,20,20s20-9.2,20-20c0-2.4,1.6-4,4-4s4,1.6,4,4
	C344.4,159.8,331.6,172.6,316,172.6z"/>
<g>
</g>
<g>
</g>
<g>
</g>
<g>
</g>
<g>
</g>
<g>
</g>
<g>
</g>
<g>
</g>
<g>
</g>
<g>
</g>
<g>
</g>
<g>
</g>
<g>
</g>
<g>
</g>
<g>
</g>
</svg>
