<?xml version="1.0" encoding="iso-8859-1"?>
<!-- Generator: Adobe Illustrator 19.0.0, SVG Export Plug-In . SVG Version: 6.00 Build 0)  -->
<svg version="1.1" id="Layer_1" xmlns="http://www.w3.org/2000/svg" xmlns:xlink="http://www.w3.org/1999/xlink" x="0px" y="0px"
	 viewBox="0 0 512 512" style="enable-background:new 0 0 512 512;" xml:space="preserve">
<path style="fill:#9ED368;" d="M0,256.006C0,397.402,114.606,512.004,255.996,512C397.394,512.004,512,397.402,512,256.006
	C512.009,114.61,397.394,0,255.996,0C114.606,0,0,114.614,0,256.006z"/>
<path style="fill:#8BC052;" d="M510.382,284.517l-0.854-0.902C509.453,283.536,352.713,126.8,352.713,126.8
	c-0.075-0.079-0.183-0.108-0.261-0.183l-1.407-1.485c-0.074-0.078-0.181-0.107-0.258-0.181l-31.438-31.516
	c-0.074-0.078-0.181-0.107-0.258-0.181l-1.409-1.488c-1.308-1.385-3.129-2.166-5.031-2.166H141.867
	c-3.833,0-6.933,3.105-6.933,6.933v318.933c0,2.348,1.241,4.32,3.026,5.574c0.462,0.658,87.759,87.954,88.417,88.417
	c0.249,0.354,0.595,0.603,0.897,0.897c9.434,1.054,19.007,1.645,28.722,1.645C387.751,512.004,496.197,412.484,510.382,284.517z"/>
<g>
	<path style="fill:#F4F6F9;" d="M397.871,177.108c-0.163-0.397-0.451-0.706-0.682-1.062c-0.233-0.361-0.391-0.764-0.692-1.079
		l-0.123-0.129c0,0-0.005-0.006-0.009-0.01l-78.688-83.06c-1.307-1.385-3.129-2.166-5.03-2.166H141.867
		c-3.833,0-6.933,3.104-6.933,6.933v318.933c0,3.829,3.101,6.933,6.933,6.933h249.6c3.833,0,6.933-3.104,6.933-6.933V179.734
		C398.4,178.822,398.21,177.936,397.871,177.108z M375.348,172.8H315.2v-63.494L375.348,172.8z M148.8,408.533V103.467h152.533
		v76.267c0,3.829,3.101,6.933,6.933,6.933h76.267v221.867H148.8z"/>
	<path style="fill:#F4F6F9;" d="M307.982,240.177c-0.785-2.691-3.121-4.638-5.911-4.935c-2.817-0.298-5.485,1.114-6.825,3.571
		l-37.165,68.131l-21.179-21.179c-1.564-1.571-3.778-2.292-6.013-1.943c-2.201,0.358-4.096,1.75-5.091,3.744l-34.667,69.333
		c-1.076,2.149-0.961,4.702,0.305,6.747c1.266,2.042,3.493,3.287,5.898,3.287h138.667c2.187,0,4.245-1.029,5.552-2.78
		s1.713-4.015,1.097-6.111L307.982,240.177z M208.553,353.067l25.35-50.697l20.929,20.932c1.537,1.543,3.683,2.282,5.89,1.961
		c2.16-0.311,4.049-1.625,5.099-3.541l33.583-61.574l27.327,92.919H208.553z"/>
	<path style="fill:#F4F6F9;" d="M218.133,244.422c15.295,0,27.733-12.442,27.733-27.733s-12.438-27.733-27.733-27.733
		S190.4,201.397,190.4,216.689S202.838,244.422,218.133,244.422z M218.133,202.822c7.645,0,13.867,6.219,13.867,13.867
		s-6.222,13.867-13.867,13.867s-13.867-6.219-13.867-13.867S210.489,202.822,218.133,202.822z"/>
</g>
<g>
</g>
<g>
</g>
<g>
</g>
<g>
</g>
<g>
</g>
<g>
</g>
<g>
</g>
<g>
</g>
<g>
</g>
<g>
</g>
<g>
</g>
<g>
</g>
<g>
</g>
<g>
</g>
<g>
</g>
</svg>
